HIERARCHY
ROOT Hips
{
  OFFSET 5.84602e-005 68.8428 3.50346
  CHANNELS 6 Xposition Yposition Zposition Zrotation Xrotation Yrotation
  JOINT Spine
  {
    OFFSET 0 8.597 -4.6522
    CHANNELS 3 Zrotation Xrotation Yrotation
    JOINT Spine1
    {
      OFFSET 0 7.8454 0.4098
      CHANNELS 3 Zrotation Xrotation Yrotation
      JOINT Spine2
      {
        OFFSET 0 9.7078 -2.1609
        CHANNELS 3 Zrotation Xrotation Yrotation
        JOINT Neck
        {
          OFFSET 0 21.8761 -0.4549
          CHANNELS 3 Zrotation Xrotation Yrotation
          JOINT Head
          {
            OFFSET 0 12.3537 3.3602
            CHANNELS 3 Zrotation Xrotation Yrotation
            End Site
            {
              OFFSET 0.0001 18.9506 0.5657
            }
          }
        }
        JOINT LeftShoulder
        {
          OFFSET 2.2086 21.1115 7.2329
          CHANNELS 3 Zrotation Xrotation Yrotation
          JOINT LeftArm
          {
            OFFSET 13.1193 3.0282 -4.8998
            CHANNELS 3 Zrotation Xrotation Yrotation
            JOINT LeftForeArm
            {
              OFFSET 27.4081 -0.0973053 -0.2375
              CHANNELS 3 Zrotation Xrotation Yrotation
              JOINT LeftHand
              {
                OFFSET 22.8641 0.0662994 -0.1369
                CHANNELS 3 Zrotation Xrotation Yrotation
                JOINT LeftHandIndex1
                {
                  OFFSET 8.8614 0.775009 2.4612
                  CHANNELS 3 Zrotation Xrotation Yrotation
                  JOINT LeftHandIndex2
                  {
                    OFFSET 3.3146 -0.808304 0.5841
                    CHANNELS 3 Zrotation Xrotation Yrotation
                    JOINT LeftHandIndex3
                    {
                      OFFSET 2.2628 -0.552002 0.3989
                      CHANNELS 3 Zrotation Xrotation Yrotation
                      End Site
                      {
                        OFFSET 1.6102 -0.4807 0.2612
                      }
                    }
                  }
                }
                JOINT LeftHandMiddle1
                {
                  OFFSET 8.9937 0.895004 0.2143
                  CHANNELS 3 Zrotation Xrotation Yrotation
                  JOINT LeftHandMiddle2
                  {
                    OFFSET 4.0984 0.0113983 -0.0242
                    CHANNELS 3 Zrotation Xrotation Yrotation
                    JOINT LeftHandMiddle3
                    {
                      OFFSET 2.2716 0.00689697 -0.0138001
                      CHANNELS 3 Zrotation Xrotation Yrotation
                      End Site
                      {
                        OFFSET 2.0404 -0.1441 0.0027
                      }
                    }
                  }
                }
                JOINT LeftHandRing1
                {
                  OFFSET 8.5234 0.597198 -2.0164
                  CHANNELS 3 Zrotation Xrotation Yrotation
                  JOINT LeftHandRing2
                  {
                    OFFSET 3.7188 -0.188293 -0.2328
                    CHANNELS 3 Zrotation Xrotation Yrotation
                    JOINT LeftHandRing3
                    {
                      OFFSET 2.1191 -0.106598 -0.1332
                      CHANNELS 3 Zrotation Xrotation Yrotation
                      End Site
                      {
                        OFFSET 1.8737 -0.2304 -0.0886
                      }
                    }
                  }
                }
                JOINT LeftHandPinky1
                {
                  OFFSET 7.9094 -0.601089 -3.4825
                  CHANNELS 3 Zrotation Xrotation Yrotation
                  JOINT LeftHandPinky2
                  {
                    OFFSET 2.2874 -0.477005 -0.6314
                    CHANNELS 3 Zrotation Xrotation Yrotation
                    JOINT LeftHandPinky3
                    {
                      OFFSET 1.6774 -0.349396 -0.4633
                      CHANNELS 3 Zrotation Xrotation Yrotation
                      End Site
                      {
                        OFFSET 1.4888 -0.4091 -0.3416
                      }
                    }
                  }
                }
                JOINT LeftHandThumb1
                {
                  OFFSET 1.833 -1.3875 1.3896
                  CHANNELS 3 Zrotation Xrotation Yrotation
                  JOINT LeftHandThumb2
                  {
                    OFFSET 3.4129 -1.121 2.5732
                    CHANNELS 3 Zrotation Xrotation Yrotation
                    JOINT LeftHandThumb3
                    {
                      OFFSET 2.2474 -0.804199 1.6192
                      CHANNELS 3 Zrotation Xrotation Yrotation
                      End Site
                      {
                        OFFSET 1.6527 -0.5689 1.1317
                      }
                    }
                  }
                }
              }
            }
          }
        }
        JOINT RightShoulder
        {
          OFFSET -2.2086 21.1115 7.2329
          CHANNELS 3 Zrotation Xrotation Yrotation
          JOINT RightArm
          {
            OFFSET -13.1216 3.0287 -4.9007
            CHANNELS 3 Zrotation Xrotation Yrotation
            JOINT RightForeArm
            {
              OFFSET -27.4081 -0.0973053 -0.2375
              CHANNELS 3 Zrotation Xrotation Yrotation
              JOINT RightHand
              {
                OFFSET -22.8641 0.0664063 -0.1369
                CHANNELS 3 Zrotation Xrotation Yrotation
                JOINT RightHandIndex1
                {
                  OFFSET -8.8614 0.774994 2.4612
                  CHANNELS 3 Zrotation Xrotation Yrotation
                  JOINT RightHandIndex2
                  {
                    OFFSET -3.3146 -0.808304 0.5841
                    CHANNELS 3 Zrotation Xrotation Yrotation
                    JOINT RightHandIndex3
                    {
                      OFFSET -2.2628 -0.552002 0.3989
                      CHANNELS 3 Zrotation Xrotation Yrotation
                      End Site
                      {
                        OFFSET -1.6102 -0.4807 0.2612
                      }
                    }
                  }
                }
                JOINT RightHandMiddle1
                {
                  OFFSET -8.9937 0.894989 0.2143
                  CHANNELS 3 Zrotation Xrotation Yrotation
                  JOINT RightHandMiddle2
                  {
                    OFFSET -4.0984 0.0113983 -0.0242
                    CHANNELS 3 Zrotation Xrotation Yrotation
                    JOINT RightHandMiddle3
                    {
                      OFFSET -2.2716 0.00691223 -0.0138001
                      CHANNELS 3 Zrotation Xrotation Yrotation
                      End Site
                      {
                        OFFSET -2.0404 -0.1441 0.0027
                      }
                    }
                  }
                }
                JOINT RightHandRing1
                {
                  OFFSET -8.5234 0.597198 -2.0164
                  CHANNELS 3 Zrotation Xrotation Yrotation
                  JOINT RightHandRing2
                  {
                    OFFSET -3.7188 -0.188309 -0.2328
                    CHANNELS 3 Zrotation Xrotation Yrotation
                    JOINT RightHandRing3
                    {
                      OFFSET -2.1191 -0.106598 -0.1332
                      CHANNELS 3 Zrotation Xrotation Yrotation
                      End Site
                      {
                        OFFSET -1.8737 -0.2304 -0.0886
                      }
                    }
                  }
                }
                JOINT RightHandPinky1
                {
                  OFFSET -7.9094 -0.601105 -3.4825
                  CHANNELS 3 Zrotation Xrotation Yrotation
                  JOINT RightHandPinky2
                  {
                    OFFSET -2.2874 -0.477005 -0.6314
                    CHANNELS 3 Zrotation Xrotation Yrotation
                    JOINT RightHandPinky3
                    {
                      OFFSET -1.6774 -0.349396 -0.4633
                      CHANNELS 3 Zrotation Xrotation Yrotation
                      End Site
                      {
                        OFFSET -1.4888 -0.4091 -0.3416
                      }
                    }
                  }
                }
                JOINT RightHandThumb1
                {
                  OFFSET -1.833 -1.38751 1.3896
                  CHANNELS 3 Zrotation Xrotation Yrotation
                  JOINT RightHandThumb2
                  {
                    OFFSET -3.41299 -1.12099 2.5732
                    CHANNELS 3 Zrotation Xrotation Yrotation
                    JOINT RightHandThumb3
                    {
                      OFFSET -2.24741 -0.804108 1.6192
                      CHANNELS 3 Zrotation Xrotation Yrotation
                      End Site
                      {
                        OFFSET -1.6527 -0.5689 1.1317
                      }
                    }
                  }
                }
              }
            }
          }
        }
      }
    }
  }
  JOINT RightUpLeg
  {
    OFFSET -9.1966 3.8861 -0.7581
    CHANNELS 3 Zrotation Xrotation Yrotation
    JOINT RightLeg
    {
      OFFSET -0.7359 -41.0265 0
      CHANNELS 3 Zrotation Xrotation Yrotation
      JOINT RightFoot
      {
        OFFSET 0 -40.2855 0
        CHANNELS 3 Zrotation Xrotation Yrotation
        JOINT RightToeBase
        {
          OFFSET 0 -5.6122 11.7359
          CHANNELS 3 Zrotation Xrotation Yrotation
          End Site
          {
            OFFSET 0 0 7.8731
          }
        }
      }
    }
  }
  JOINT LeftUpLeg
  {
    OFFSET 9.1965 3.8864 -0.7581
    CHANNELS 3 Zrotation Xrotation Yrotation
    JOINT LeftLeg
    {
      OFFSET 0.7359 -41.0268 0
      CHANNELS 3 Zrotation Xrotation Yrotation
      JOINT LeftFoot
      {
        OFFSET 0 -40.2855 0
        CHANNELS 3 Zrotation Xrotation Yrotation
        JOINT LeftToeBase
        {
          OFFSET 0 -5.6122 11.7359
          CHANNELS 3 Zrotation Xrotation Yrotation
          End Site
          {
            OFFSET 0 0 7.8731
          }
        }
      }
    }
  }
}
MOTION
Frames:	6
Frame Time:	0.0333333
-0.177077 1.85676 6.3112 -180 -89.9981 -180 -0.045922 8.40872 -0.0679568 -0.0829985 16.8175 -0.131171 -0.0829985 16.8175 -0.131171 1.90989e-006 17.9988 -1.24449e-006 -0.00233124 2.64831 14.9968 0.603948 0.432965 8.60715 -77.1298 0.63161 30.2922 27.5535 10.0184 -70.428 -7.08971 23.5991 0.21761 2.28655e-006 -2.55287e-007 -7.23639e-007 2.28655e-006 -2.55287e-007 -7.23639e-007 1.23834e-006 -6.62919e-007 -1.56221e-006 2.28655e-006 -2.55287e-007 -7.23639e-007 -0.0146327 -8.8216e-005 -1.02882e-005 2.28654e-006 -2.55194e-007 -7.23673e-007 2.28655e-006 -2.55287e-007 -7.23639e-007 -0.0187607 -0.00117972 5.5844e-005 1.23999e-006 -6.62559e-007 -1.56234e-006 2.28655e-006 -2.55287e-007 -7.23639e-007 -0.0122683 -0.00324822 0.000677056 2.28652e-006 -2.55226e-007 -7.2373e-007 2.28655e-006 -2.55287e-007 -7.23639e-007 2.28655e-006 -2.55287e-007 -7.23639e-007 1.23834e-006 -6.62919e-007 -1.56221e-006 -0.607421 0.433255 -8.61063 77.1126 0.634031 -30.2949 -27.6434 9.7427 71.0674 7.08676 23.5989 -0.220557 -2.28602e-015 -2.13694e-015 4.77083e-015 1.27381e-006 -1.01011e-006 -3.14191e-007 1.00692e-031 1.81391e-015 -3.18055e-015 -2.28602e-015 -2.13694e-015 4.77083e-015 0.015015 -8.89476e-005 5.91952e-006 -4.07509e-015 -8.69683e-015 3.18055e-015 -2.28602e-015 -2.13694e-015 4.77083e-015 0.0189729 -0.00119185 -6.78731e-005 1.88845e-015 5.71506e-016 -1.59028e-015 -2.28602e-015 -2.13694e-015 4.77083e-015 0.0122485 -0.00324189 -0.0006764 -8.94531e-016 2.75814e-015 -4.77083e-015 -2.28602e-015 -2.13694e-015 4.77083e-015 1.27381e-006 -1.01011e-006 -3.14191e-007 1.00692e-031 1.81391e-015 -3.18055e-015 -38.3643 -43.3599 -45.9055 176.664 48.0649 177.635 -7.39682 13.7 -3.32711 1.72029e-006 -4.48762e-007 -6.64765e-007 16.3501 3.04256 1.06756 -1.99525 6.62708 0.848349 9.12586 13.3993 0.59927 -2.17933e-006 -1.07009e-006 3.68712e-006 
-0.177077 1.85676 6.3112 -180 -89.9981 -180 -0.045109 8.36083 -0.0666865 -0.0815842 16.7217 -0.128728 -0.0815842 16.7217 -0.128728 1.42239e-006 17.9988 -9.08602e-007 -0.00233187 2.42302 14.9971 0.603947 0.432999 8.60715 -77.1298 0.631639 30.2922 27.3546 10.0658 -70.1761 -7.08972 23.5991 0.217603 -1.27033e-006 -1.01471e-006 3.04846e-007 2.02943e-006 -2.54067e-006 -8.47107e-007 4.82571e-006 1.7738e-006 -1.33809e-006 -1.27033e-006 -1.01471e-006 3.04846e-007 -0.0146001 -9.05397e-005 1.05582e-008 3.77577e-006 1.38793e-006 -2.17426e-006 -1.27033e-006 -1.01471e-006 3.04846e-007 -0.0187492 -0.00118513 6.10711e-005 3.77609e-006 1.38809e-006 -2.17425e-006 -1.27033e-006 -1.01471e-006 3.04846e-007 -0.0122496 -0.00324743 0.000677679 4.82558e-006 1.77389e-006 -1.33803e-006 -1.27033e-006 -1.01471e-006 3.04846e-007 2.02943e-006 -2.54067e-006 -8.47107e-007 4.82571e-006 1.7738e-006 -1.33809e-006 -0.607419 0.43328 -8.61063 77.1126 0.63403 -30.2949 -27.4486 9.78173 70.839 7.08677 23.5989 -0.220565 1.27305e-006 -1.00949e-006 -3.17051e-007 -2.13396e-006 -3.60971e-006 -5.82941e-006 1.39288e-006 -2.63088e-006 9.40839e-007 1.27305e-006 -1.00949e-006 -3.17051e-007 0.0150041 -8.92041e-005 -6.31502e-006 2.63465e-007 -2.28253e-006 1.02122e-007 1.27305e-006 -1.00949e-006 -3.17051e-007 0.019 -0.00119174 -6.00316e-005 2.63441e-007 -2.28252e-006 1.02199e-007 1.27305e-006 -1.00949e-006 -3.17051e-007 0.0122737 -0.00324954 -0.000674951 2.63498e-007 -2.28251e-006 1.02065e-007 1.27305e-006 -1.00949e-006 -3.17051e-007 -2.13396e-006 -3.60971e-006 -5.82941e-006 1.39288e-006 -2.63088e-006 9.40839e-007 -38.3643 -43.3599 -45.9055 176.664 48.0649 177.635 -7.39682 13.7 -3.32711 1.72029e-006 -4.48762e-007 -6.64765e-007 16.3501 3.04256 1.06756 -1.99525 6.62708 0.848349 9.12586 13.3993 0.59927 -2.17933e-006 -1.07009e-006 3.68712e-006 
-0.177077 1.85676 6.3112 -180 -89.9981 -180 -0.0442943 8.31293 -0.0654162 -0.080165 16.6259 -0.126286 -0.080165 16.626 -0.126286 1.59384e-006 17.9989 -1.14229e-006 -0.00233281 2.19764 14.9975 0.603947 0.432978 8.60715 -77.1298 0.631611 30.2922 27.1554 10.1123 -69.924 -7.08972 23.5991 0.217595 0 1.63997e-015 -0 -9.93923e-016 -4.67144e-015 1.59028e-015 -3.97569e-016 -5.31749e-015 3.18055e-015 0 1.63997e-015 -0 -0.0146243 -9.05495e-005 2.31043e-006 1.19271e-015 -6.70898e-015 -1.59028e-015 0 1.63997e-015 -0 -0.0187552 -0.00117637 6.17162e-005 5.96354e-016 -9.93923e-016 1.59028e-015 0 1.63997e-015 -0 -0.0122513 -0.00324451 0.000676934 -1.05291e-006 -3.64292e-007 -8.34106e-007 0 1.63997e-015 -0 -9.93923e-016 -4.67144e-015 1.59028e-015 -3.97569e-016 -5.31749e-015 3.18055e-015 -0.607421 0.433242 -8.61064 77.1126 0.63402 -30.2949 -27.2536 9.81996 70.6104 7.08676 23.5989 -0.220564 -2.28116e-006 -2.63398e-007 7.40436e-007 -1.53568e-006 3.29004e-006 2.19292e-007 -2.54456e-006 2.01776e-006 6.39818e-007 -2.28116e-006 -2.63398e-007 7.40436e-007 0.0149946 -8.68213e-005 -6.7463e-006 -2.54445e-006 2.01784e-006 6.39556e-007 -2.28116e-006 -2.63398e-007 7.40436e-007 0.0189862 -0.00119066 -5.73224e-005 -1.4129e-006 1.68981e-006 1.47386e-006 -2.28116e-006 -2.63398e-007 7.40436e-007 0.0122792 -0.00325002 -0.00067243 -2.54446e-006 2.01779e-006 6.39669e-007 -2.28116e-006 -2.63398e-007 7.40436e-007 -1.53568e-006 3.29004e-006 2.19292e-007 -2.54456e-006 2.01776e-006 6.39818e-007 -38.3643 -43.3599 -45.9055 176.664 48.0649 177.635 -7.39682 13.7 -3.32711 1.72029e-006 -4.48762e-007 -6.64765e-007 16.3501 3.04256 1.06756 -1.99525 6.62708 0.848349 9.12586 13.3993 0.59927 -2.17933e-006 -1.07009e-006 3.68712e-006 
-0.177077 1.85676 6.3112 -180 -89.9981 -180 -0.0434781 8.26505 -0.0641463 -0.0787409 16.5301 -0.123843 -0.0787407 16.5302 -0.123843 -6.4399e-008 17.9984 -1.63549e-007 -0.00229288 1.97221 14.9968 0.603947 0.43297 8.60715 -77.1298 0.631617 30.2922 26.9559 10.158 -69.6717 -7.08972 23.5991 0.217598 1.19271e-015 -7.65321e-015 -1.59028e-015 2.18663e-015 -4.72114e-015 1.59028e-015 1.98785e-015 -1.44119e-015 -4.77083e-015 1.19271e-015 -7.65321e-015 -1.59028e-015 -0.0146108 -8.76724e-005 -2.38049e-006 3.97569e-016 -1.99282e-014 1.59028e-015 1.19271e-015 -7.65321e-015 -1.59028e-015 -0.0187638 -0.0011758 5.79757e-005 9.93923e-016 -1.03368e-014 1.59028e-015 1.19271e-015 -7.65321e-015 -1.59028e-015 -0.0122289 -0.00323647 0.000680266 -1.59028e-015 -1.88845e-015 -0 1.19271e-015 -7.65321e-015 -1.59028e-015 2.18663e-015 -4.72114e-015 1.59028e-015 1.98785e-015 -1.44119e-015 -4.77083e-015 -0.60742 0.43325 -8.61063 77.1125 0.634052 -30.2949 -27.0584 9.85743 70.3816 7.08676 23.5989 -0.22056 -3.55125e-006 7.45059e-007 1.06771e-006 -2.54298e-006 2.01655e-006 6.45525e-007 -1.00827e-006 -1.27149e-006 4.22182e-007 -3.55125e-006 7.45059e-007 1.06771e-006 0.0149962 -9.04325e-005 4.40234e-006 -1.00832e-006 -1.27143e-006 4.22349e-007 -3.55125e-006 7.45059e-007 1.06771e-006 0.0190001 -0.00119491 -5.84108e-005 -1.00832e-006 -1.27142e-006 4.22403e-007 -3.55125e-006 7.45059e-007 1.06771e-006 0.0122772 -0.00325152 -0.000677541 -1.00829e-006 -1.27144e-006 4.22349e-007 -3.55125e-006 7.45059e-007 1.06771e-006 -2.54298e-006 2.01655e-006 6.45525e-007 -1.00827e-006 -1.27149e-006 4.22182e-007 -38.3643 -43.3599 -45.9055 176.664 48.0649 177.635 -7.39682 13.7 -3.32711 1.72029e-006 -4.48762e-007 -6.64765e-007 16.3501 3.04256 1.06756 -1.99525 6.62708 0.848349 9.12586 13.3993 0.59927 -2.17933e-006 -1.07009e-006 3.68712e-006 
-0.177077 1.85676 6.3112 -180 -89.9981 -180 -0.0426603 8.21715 -0.0628766 -0.0773116 16.4344 -0.121401 -0.0773116 16.4343 -0.121402 1.06729e-006 17.9989 -8.37021e-007 -0.00223339 1.74673 14.9953 0.603947 0.432996 8.60715 -77.1298 0.631593 30.2922 26.7562 10.2028 -69.4191 -7.08973 23.5991 0.217597 -1.01198e-006 1.26848e-006 4.29526e-007 -1.01198e-006 1.26848e-006 4.29526e-007 -1.01198e-006 1.26848e-006 4.29526e-007 -1.01198e-006 1.26848e-006 4.29526e-007 -0.0146124 -8.70903e-005 3.04079e-006 -1.01202e-006 1.26843e-006 4.29688e-007 -1.01198e-006 1.26848e-006 4.29526e-007 -0.0187594 -0.00117207 6.50282e-005 -1.01203e-006 1.26841e-006 4.29744e-007 -1.01198e-006 1.26848e-006 4.29526e-007 -0.012239 -0.00323521 0.000675245 -1.012e-006 1.26843e-006 4.29692e-007 -1.01198e-006 1.26848e-006 4.29526e-007 -1.01198e-006 1.26848e-006 4.29526e-007 -1.01198e-006 1.26848e-006 4.29526e-007 -0.607421 0.433278 -8.61063 77.1126 0.634011 -30.2949 -26.863 9.89416 70.1527 7.08676 23.5989 -0.220556 -2.27836e-006 -2.63013e-007 7.49454e-007 -4.29371e-006 -2.80439e-006 1.59713e-006 -2.27836e-006 -2.63013e-007 7.49454e-007 -2.27836e-006 -2.63013e-007 7.49454e-007 0.0150028 -9.24774e-005 3.74058e-006 -2.27835e-006 -2.62915e-007 7.4949e-007 -2.27836e-006 -2.63013e-007 7.49454e-007 0.0189766 -0.00118825 -5.29534e-005 -2.27834e-006 -2.62891e-007 7.49521e-007 -2.27836e-006 -2.63013e-007 7.49454e-007 0.0122946 -0.00325544 -0.00067858 -2.27833e-006 -2.62949e-007 7.49546e-007 -2.27836e-006 -2.63013e-007 7.49454e-007 -4.29371e-006 -2.80439e-006 1.59713e-006 -2.27836e-006 -2.63013e-007 7.49454e-007 -38.3643 -43.3599 -45.9055 176.664 48.0649 177.635 -7.39682 13.7 -3.32711 1.72029e-006 -4.48762e-007 -6.64765e-007 16.3501 3.04256 1.06756 -1.99525 6.62708 0.848349 9.12586 13.3993 0.59927 -2.17933e-006 -1.07009e-006 3.68712e-006 
-0.177077 1.85676 6.3112 -180 -89.9981 -180 -0.041841 8.16926 -0.0616072 -0.0758777 16.3385 -0.11896 -0.0758777 16.3386 -0.11896 2.23646e-006 17.9983 -1.56059e-006 -0.00219179 1.5212 14.994 0.603948 0.432974 8.60715 -77.1298 0.631611 30.2922 26.5562 10.2467 -69.1663 -7.08972 23.5991 0.217611 1.01108e-006 -1.26784e-006 -4.31521e-007 1.01108e-006 -1.26784e-006 -4.31521e-007 1.01108e-006 -1.26784e-006 -4.31521e-007 1.01108e-006 -1.26784e-006 -4.31521e-007 -0.0146158 -8.78659e-005 4.42075e-006 1.01112e-006 -1.26778e-006 -4.31684e-007 1.01108e-006 -1.26784e-006 -4.31521e-007 -0.0187786 -0.00117853 6.07587e-005 1.01113e-006 -1.26776e-006 -4.3174e-007 1.01108e-006 -1.26784e-006 -4.31521e-007 -0.012288 -0.00325656 0.000676143 1.0111e-006 -1.26779e-006 -4.31688e-007 1.01108e-006 -1.26784e-006 -4.31521e-007 1.01108e-006 -1.26784e-006 -4.31521e-007 1.01108e-006 -1.26784e-006 -4.31521e-007 -0.60742 0.433244 -8.61063 77.1126 0.634027 -30.2949 -26.6675 9.9301 69.9236 7.08677 23.5989 -0.220555 2.01416e-006 2.53974e-006 -8.51001e-007 -1.26987e-006 1.00708e-006 3.28459e-007 -7.95139e-016 3.76448e-015 -1.59028e-015 2.01416e-006 2.53974e-006 -8.51001e-007 0.0150144 -9.09593e-005 -4.46714e-006 9.93923e-017 5.34234e-015 -1.59028e-015 2.01416e-006 2.53974e-006 -8.51001e-007 0.0189898 -0.00118859 -5.97694e-005 6.95746e-016 1.2921e-014 -3.18055e-015 2.01416e-006 2.53974e-006 -8.51001e-007 0.012256 -0.00324254 -0.000677515 -5.17255e-032 9.31803e-016 3.18055e-015 2.01416e-006 2.53974e-006 -8.51001e-007 -1.26987e-006 1.00708e-006 3.28459e-007 -7.95139e-016 3.76448e-015 -1.59028e-015 -38.3643 -43.3599 -45.9055 176.664 48.0649 177.635 -7.39682 13.7 -3.32711 1.72029e-006 -4.48762e-007 -6.64765e-007 16.3501 3.04256 1.06756 -1.99525 6.62708 0.848349 9.12586 13.3993 0.59927 -2.17933e-006 -1.07009e-006 3.68712e-006 
